<svg width="148" height="148" viewBox="0 0 406 438" fill="none" xmlns="http://www.w3.org/2000/svg"><path d="M207.56 376.417C299.369 376.417 373.687 302.422 373.687 210.935C373.687 119.448 299.45 45.3715 207.56 45.3715C116.073 45.3715 41.5127 119.367 41.5127 210.854C41.5127 302.341 115.75 376.417 207.56 376.417Z" fill="#F1F3F9" stroke="#D6DCE8" stroke-width="2" stroke-miterlimit="10" stroke-linejoin="round"></path><path d="M388.921 400.357C423.017 365.052 398.272 305.162 348.538 305.162C325.888 305.162 306.462 318.543 297.515 337.808C289.616 338.291 282.28 340.79 266.401 351.269L263.822 294.522H244.315L242.703 329.828C236.335 324.911 230.209 325.475 225.937 325.797L226.985 325.636L225.293 290.734H192.809L190.793 332.246C185.312 328.054 183.62 330.069 181.927 330.069C178.622 330.069 175.478 330.956 172.818 332.407L171.045 294.442H151.539L150.168 324.508C141.302 319.268 130.904 316.205 119.861 316.205C106.48 316.205 94.1477 320.639 84.1526 328.054C40.7064 307.419 -7.01196 347.48 5.88489 393.909L37.0791 413.899C36.3537 414.383 35.6283 414.866 34.9028 415.35L37.0791 413.899C27.0035 423.33 56.9081 396.085 65.0492 399.793C65.694 401.244 66.3389 402.614 67.0643 403.984L65.694 400.196C66.5807 400.921 67.0643 402.131 67.0643 403.984C67.0643 403.984 67.0643 404.065 67.1449 404.065C59.0844 404.468 51.5075 406.403 44.5754 409.707L70.5304 405.032C92.6968 409.788 214.25 426.473 214.491 428.569L212.718 425.264C213.444 425.345 214.25 425.425 215.056 425.506C219.005 431.31 224.809 435.824 231.58 438C226.099 435.179 221.504 430.987 218.199 425.829C244.88 428.408 279.621 426.635 292.356 425.264C304.044 427.36 316.296 424.7 326.291 417.446C328.387 415.914 330.402 414.141 332.256 412.206C344.588 412.126 367.238 415.672 366.916 410.191L389.163 414.141C382.876 411.239 376.105 409.304 368.851 408.66L388.921 400.357ZM324.518 414.221C324.598 413.98 324.679 413.818 324.921 413.576L324.518 414.221Z" fill="white"></path><path d="M172.819 332.407L171.046 294.522H151.539L150.169 324.508" fill="white"></path><path d="M172.819 332.407L171.046 294.522H151.539L150.169 324.508" stroke="#AAB2C5" stroke-width="2" stroke-miterlimit="10" stroke-linecap="round" stroke-linejoin="round"></path><path d="M266.483 352.72L263.823 294.522H244.316L242.704 329.908" fill="white"></path><path d="M266.483 352.72L263.823 294.522H244.316L242.704 329.908" stroke="#AAB2C5" stroke-width="2" stroke-miterlimit="10" stroke-linecap="round" stroke-linejoin="round"></path><path d="M226.986 325.555L225.212 290.734H192.809L190.794 331.681L190.875 332.326" fill="white"></path><path d="M226.986 325.555L225.212 290.734H192.809L190.794 331.681L190.875 332.326" stroke="#AAB2C5" stroke-width="2" stroke-miterlimit="10" stroke-linecap="round" stroke-linejoin="round"></path><path d="M51.5884 384.72C54.4096 383.753 57.392 383.108 60.5356 382.785" stroke="#AAB2C5" stroke-width="2" stroke-miterlimit="10" stroke-linecap="round" stroke-linejoin="round"></path><path d="M221.827 278.321H195.227L189.746 282.029C188.617 282.835 187.973 284.044 187.973 285.414V289.041H229.887V285.575C229.887 284.124 229.162 282.835 227.953 282.109L221.827 278.321Z" fill="white" stroke="#AAB2C5" stroke-width="2" stroke-miterlimit="10" stroke-linecap="round" stroke-linejoin="round"></path><path d="M231.661 290.734C231.661 291.621 230.935 292.346 230.049 292.346H187.489C186.602 292.346 185.877 291.621 185.877 290.734C185.877 289.847 186.602 289.122 187.489 289.122H230.049C230.935 289.122 231.661 289.847 231.661 290.734Z" fill="white" stroke="#AAB2C5" stroke-width="2" stroke-miterlimit="10" stroke-linecap="round" stroke-linejoin="round"></path><path d="M139.045 53.5126H138.4C137.352 53.5126 136.546 52.7066 136.546 51.6587V51.0139C136.546 50.2078 135.901 49.563 135.095 49.563C134.289 49.563 133.644 50.2078 133.644 51.0139V51.6587C133.644 52.7066 132.838 53.5126 131.791 53.5126H131.146C130.34 53.5126 129.695 54.1575 129.695 54.9635C129.695 55.7696 130.34 56.4144 131.146 56.4144H131.791C132.838 56.4144 133.644 57.2205 133.644 58.2684V58.9132C133.644 59.7193 134.289 60.3641 135.095 60.3641C135.901 60.3641 136.546 59.7193 136.546 58.9132V58.2684C136.546 57.2205 137.352 56.4144 138.4 56.4144H139.045C139.851 56.4144 140.496 55.7696 140.496 54.9635C140.496 54.2381 139.851 53.5126 139.045 53.5126Z" fill="#D6DDE8"></path><path d="M97.9364 27.7996H97.3722C96.5661 27.7996 95.8407 27.1547 95.8407 26.2681V25.7038C95.8407 25.059 95.2764 24.4948 94.6316 24.4948C93.9867 24.4948 93.4225 25.059 93.4225 25.7038V26.2681C93.4225 27.0741 92.7777 27.7996 91.891 27.7996H91.3268C90.6819 27.7996 90.1177 28.3638 90.1177 29.0086C90.1177 29.6535 90.6819 30.2177 91.3268 30.2177H91.891C92.697 30.2177 93.4225 30.8626 93.4225 31.7492V32.3135C93.4225 32.9583 93.9867 33.5225 94.6316 33.5225C95.2764 33.5225 95.8407 32.9583 95.8407 32.3135V31.7492C95.8407 30.9432 96.4855 30.2177 97.3722 30.2177H97.9364C98.5812 30.2177 99.1455 29.6535 99.1455 29.0086C99.1455 28.3638 98.5812 27.7996 97.9364 27.7996Z" fill="#D6DDE8"></path><path d="M47.8807 198.28H47.3165C46.5104 198.28 45.785 197.635 45.785 196.748V196.184C45.785 195.539 45.2207 194.975 44.5759 194.975C43.9311 194.975 43.3668 195.539 43.3668 196.184V196.748C43.3668 197.554 42.722 198.28 41.8353 198.28H41.2711C40.6262 198.28 40.062 198.844 40.062 199.489C40.062 200.134 40.6262 200.698 41.2711 200.698H41.8353C42.6414 200.698 43.3668 201.343 43.3668 202.23V202.794C43.3668 203.439 43.9311 204.003 44.5759 204.003C45.2207 204.003 45.785 203.439 45.785 202.794V202.23C45.785 201.424 46.4298 200.698 47.3165 200.698H47.8807C48.5256 200.698 49.0898 200.134 49.0898 199.489C49.0898 198.764 48.5256 198.28 47.8807 198.28Z" fill="#D6DDE8"></path><path d="M180.557 3.69858H179.993C179.187 3.69858 178.461 3.05373 178.461 2.16708V1.68344C178.461 1.0386 177.897 0.474365 177.252 0.474365C176.607 0.474365 176.043 1.0386 176.043 1.68344V2.24768C176.043 3.05374 175.398 3.77918 174.512 3.77918H173.947C173.303 3.77918 172.738 4.34342 172.738 4.98826C172.738 5.6331 173.303 6.19734 173.947 6.19734H174.512C175.318 6.19734 176.043 6.84218 176.043 7.72884V8.29308C176.043 8.93792 176.607 9.50216 177.252 9.50216C177.897 9.50216 178.461 8.93792 178.461 8.29308V7.56763C178.461 6.76158 179.106 6.03613 179.993 6.03613H180.557C181.202 6.03613 181.766 5.47189 181.766 4.82705C181.766 4.26281 181.282 3.69858 180.557 3.69858Z" fill="#D6DDE8"></path><path d="M392.307 99.2964H391.743C390.937 99.2964 390.211 98.6515 390.211 97.7649V97.2007C390.211 96.5558 389.647 95.9916 389.002 95.9916C388.357 95.9916 387.793 96.5558 387.793 97.2007V97.7649C387.793 98.5709 387.148 99.2964 386.262 99.2964H385.697C385.053 99.2964 384.488 99.8606 384.488 100.505C384.488 101.15 385.053 101.715 385.697 101.715H386.262C387.068 101.715 387.793 102.359 387.793 103.246V103.81C387.793 104.455 388.357 105.019 389.002 105.019C389.647 105.019 390.211 104.455 390.211 103.81V103.246C390.211 102.44 390.856 101.715 391.743 101.715H392.307C392.952 101.715 393.516 101.15 393.516 100.505C393.516 99.8606 392.952 99.2964 392.307 99.2964Z" fill="#D6DDE8"></path><path d="M347.571 274.21H347.007C346.201 274.21 345.475 273.565 345.475 272.678V272.114C345.475 271.469 344.911 270.905 344.266 270.905C343.621 270.905 343.057 271.469 343.057 272.114V272.678C343.057 273.485 342.412 274.21 341.526 274.21H341.123C340.478 274.21 339.914 274.774 339.914 275.419C339.914 276.064 340.478 276.628 341.123 276.628H341.687C342.493 276.628 343.218 277.273 343.218 278.16V278.724C343.218 279.369 343.783 279.933 344.427 279.933C345.072 279.933 345.637 279.369 345.637 278.724V278.16C345.637 277.354 346.281 276.628 347.168 276.628H347.732C348.377 276.628 348.941 276.064 348.941 275.419C348.78 274.774 348.216 274.21 347.571 274.21Z" fill="#D6DDE8"></path><path d="M42.5604 286.462H42.0767C41.2707 286.462 40.5452 285.817 40.5452 284.931V284.366C40.5452 283.721 39.981 283.157 39.3362 283.157C38.6913 283.157 38.1271 283.721 38.1271 284.366V284.931C38.1271 285.737 37.4822 286.462 36.5956 286.462H36.0313C35.3865 286.462 34.8223 287.026 34.8223 287.671C34.8223 288.316 35.3865 288.88 36.0313 288.88H36.5956C37.4016 288.88 38.1271 289.525 38.1271 290.412V290.976C38.1271 291.621 38.6913 292.185 39.3362 292.185C39.981 292.185 40.5452 291.621 40.5452 290.976V290.412C40.5452 289.606 41.1901 288.88 42.0767 288.88H42.641C43.2858 288.88 43.8501 288.316 43.8501 287.671C43.7695 287.026 43.2052 286.462 42.5604 286.462Z" fill="#D6DDE8"></path><path d="M296.145 142.904H295.5C294.452 142.904 293.646 142.098 293.646 141.05V140.405C293.646 139.599 293.001 138.954 292.195 138.954C291.389 138.954 290.744 139.599 290.744 140.405V141.05C290.744 142.098 289.938 142.904 288.89 142.904H288.245C287.439 142.904 286.794 143.549 286.794 144.355C286.794 145.161 287.439 145.806 288.245 145.806H288.89C289.938 145.806 290.744 146.612 290.744 147.66V148.304C290.744 149.11 291.389 149.755 292.195 149.755C293.001 149.755 293.646 149.11 293.646 148.304V147.66C293.646 146.612 294.452 145.806 295.5 145.806H296.145C296.951 145.806 297.596 145.161 297.596 144.355C297.596 143.549 296.951 142.904 296.145 142.904Z" fill="#D6DDE8"></path><path d="M314.442 253.897H313.797C312.749 253.897 311.943 253.091 311.943 252.043V251.399C311.943 250.593 311.298 249.948 310.492 249.948C309.686 249.948 309.041 250.593 309.041 251.399V252.043C309.041 253.091 308.235 253.897 307.188 253.897H306.462C305.656 253.897 305.011 254.542 305.011 255.348C305.011 256.154 305.656 256.799 306.462 256.799H307.107C308.155 256.799 308.961 257.605 308.961 258.653V259.298C308.961 260.104 309.606 260.749 310.412 260.749C311.218 260.749 311.863 260.104 311.863 259.298V258.653C311.863 257.605 312.669 256.799 313.717 256.799H314.361C315.167 256.799 315.812 256.154 315.812 255.348C315.893 254.542 315.248 253.897 314.442 253.897Z" fill="#D6DDE8"></path><path d="M385.053 140.566H384.65C384.005 140.566 383.521 140.083 383.521 139.438V139.115C383.521 138.632 383.118 138.229 382.634 138.229C382.151 138.229 381.748 138.632 381.748 139.115V139.518C381.748 140.163 381.264 140.647 380.619 140.647H380.216C379.733 140.647 379.33 141.05 379.33 141.534C379.33 142.017 379.733 142.42 380.216 142.42H380.619C381.264 142.42 381.748 142.904 381.748 143.549V143.952C381.748 144.435 382.151 144.838 382.634 144.838C383.118 144.838 383.521 144.435 383.521 143.952V143.549C383.521 142.904 384.005 142.42 384.65 142.42H385.053C385.536 142.42 385.939 142.017 385.939 141.534C385.939 140.969 385.536 140.566 385.053 140.566Z" fill="#D6DDE8"></path><path d="M347.329 160.556H347.007C346.523 160.556 346.12 160.153 346.12 159.67V159.347C346.12 158.944 345.798 158.622 345.395 158.622C344.992 158.622 344.669 158.944 344.669 159.347V159.67C344.669 160.153 344.266 160.556 343.783 160.556H343.46C343.057 160.556 342.735 160.879 342.735 161.282C342.735 161.685 343.057 162.007 343.46 162.007H343.783C344.266 162.007 344.669 162.41 344.669 162.894V163.216C344.669 163.619 344.992 163.942 345.395 163.942C345.798 163.942 346.12 163.619 346.12 163.216V162.894C346.12 162.41 346.523 162.007 347.007 162.007H347.329C347.732 162.007 348.055 161.685 348.055 161.282C348.055 160.879 347.732 160.556 347.329 160.556Z" fill="#D6DDE8"></path><path d="M270.109 56.9786H269.787C269.303 56.9786 268.9 56.5756 268.9 56.0919V55.7695C268.9 55.3665 268.578 55.0441 268.175 55.0441C267.772 55.0441 267.449 55.3665 267.449 55.7695V56.0919C267.449 56.5756 267.046 56.9786 266.563 56.9786H266.24C265.837 56.9786 265.515 57.301 265.515 57.704C265.515 58.1071 265.837 58.4295 266.24 58.4295H266.563C267.046 58.4295 267.449 58.8325 267.449 59.3162V59.6386C267.449 60.0416 267.772 60.364 268.175 60.364C268.578 60.364 268.9 60.0416 268.9 59.6386V59.3162C268.9 58.8325 269.303 58.4295 269.787 58.4295H270.109C270.512 58.4295 270.835 58.1071 270.835 57.704C270.754 57.301 270.512 56.9786 270.109 56.9786Z" fill="#D6DDE8"></path><path d="M349.99 54.3187H349.667C349.183 54.3187 348.78 53.9157 348.78 53.432V53.1096C348.78 52.7066 348.458 52.3842 348.055 52.3842C347.652 52.3842 347.33 52.7066 347.33 53.1096V53.432C347.33 53.9157 346.927 54.3187 346.443 54.3187H346.12C345.717 54.3187 345.395 54.6411 345.395 55.0441C345.395 55.4472 345.717 55.7696 346.12 55.7696H346.443C346.927 55.7696 347.33 56.1726 347.33 56.6562V56.9787C347.33 57.3817 347.652 57.7041 348.055 57.7041C348.458 57.7041 348.78 57.3817 348.78 56.9787V56.6562C348.78 56.1726 349.183 55.7696 349.667 55.7696H349.99C350.393 55.7696 350.715 55.4472 350.715 55.0441C350.715 54.6411 350.393 54.3187 349.99 54.3187Z" fill="#D6DDE8"></path><path d="M26.4395 121.382H26.0365C25.3916 121.382 24.8274 120.818 24.8274 120.173V119.77C24.8274 119.206 24.4243 118.803 23.8601 118.803C23.2959 118.803 22.8928 119.206 22.8928 119.77V120.173C22.8928 120.818 22.3286 121.382 21.6838 121.382H21.2807C20.7165 121.382 20.3135 121.785 20.3135 122.35C20.3135 122.914 20.7165 123.317 21.2807 123.317H21.6838C22.3286 123.317 22.8928 123.881 22.8928 124.526V124.929C22.8928 125.493 23.2959 125.896 23.8601 125.896C24.4243 125.896 24.8274 125.493 24.8274 124.929V124.526C24.8274 123.881 25.3916 123.317 26.0365 123.317H26.4395C27.0037 123.317 27.4067 122.914 27.4067 122.35C27.4067 121.866 26.9231 121.382 26.4395 121.382Z" fill="#D6DDE8"></path><path d="M104.869 237.373H104.466C103.821 237.373 103.257 236.809 103.257 236.164V235.761C103.257 235.197 102.854 234.794 102.289 234.794C101.725 234.794 101.322 235.197 101.322 235.761V236.164C101.322 236.809 100.758 237.373 100.113 237.373H99.7099C99.1457 237.373 98.7427 237.776 98.7427 238.341C98.7427 238.905 99.1457 239.308 99.7099 239.308H100.113C100.758 239.308 101.322 239.872 101.322 240.517V240.92C101.322 241.484 101.725 241.887 102.289 241.887C102.854 241.887 103.257 241.484 103.257 240.92V240.517C103.257 239.872 103.821 239.308 104.466 239.308H104.869C105.433 239.308 105.836 238.905 105.836 238.341C105.836 237.776 105.352 237.373 104.869 237.373Z" fill="#D6DDE8"></path><path d="M400.69 277.515H400.287C399.642 277.515 399.078 276.951 399.078 276.306V275.903C399.078 275.339 398.675 274.936 398.111 274.936C397.546 274.936 397.143 275.339 397.143 275.903V276.306C397.143 276.951 396.579 277.515 395.934 277.515H395.531C394.967 277.515 394.564 277.918 394.564 278.482C394.564 279.046 394.967 279.449 395.531 279.449H395.934C396.579 279.449 397.143 280.014 397.143 280.659V281.062C397.143 281.626 397.546 282.029 398.111 282.029C398.675 282.029 399.078 281.626 399.078 281.062V280.659C399.078 280.014 399.642 279.449 400.287 279.449H400.69C401.254 279.449 401.657 279.046 401.657 278.482C401.657 277.999 401.174 277.515 400.69 277.515Z" fill="#D6DDE8"></path><path d="M18.4594 70.0367H18.137C17.5728 70.0367 17.1698 69.6336 17.1698 69.0694V68.747C17.1698 68.3439 16.8473 67.9409 16.3637 67.9409C15.9607 67.9409 15.5577 68.2633 15.5577 68.747V69.0694C15.5577 69.6336 15.1546 70.0367 14.5904 70.0367H14.268C13.8649 70.0367 13.4619 70.3591 13.4619 70.8427C13.4619 71.2457 13.7843 71.6488 14.268 71.6488H14.671C15.2352 71.6488 15.6383 72.0518 15.6383 72.616V72.9385C15.6383 73.3415 15.9607 73.7445 16.4443 73.7445C16.8473 73.7445 17.2504 73.4221 17.2504 72.9385V72.616C17.2504 72.0518 17.6534 71.6488 18.2176 71.6488H18.54C18.9431 71.6488 19.3461 71.3263 19.3461 70.8427C19.2655 70.3591 18.8625 70.0367 18.4594 70.0367Z" fill="#D6DDE8"></path><path d="M48.8476 33.6836H48.5252C47.961 33.6836 47.5579 33.2806 47.5579 32.7164V32.3939C47.5579 31.9909 47.2355 31.5879 46.7519 31.5879C46.3489 31.5879 45.9458 31.9103 45.9458 32.3939V32.7164C45.9458 33.2806 45.5428 33.6836 44.9786 33.6836H44.6562C44.2531 33.6836 43.8501 34.0061 43.8501 34.4897C43.8501 34.8927 44.1725 35.2957 44.6562 35.2957H44.9786C45.5428 35.2957 45.9458 35.6988 45.9458 36.263V36.5854C45.9458 36.9884 46.2683 37.3915 46.7519 37.3915C47.1549 37.3915 47.5579 37.0691 47.5579 36.5854V36.263C47.5579 35.6988 47.961 35.2957 48.5252 35.2957H48.8476C49.2507 35.2957 49.6537 34.9733 49.6537 34.4897C49.6537 34.0061 49.3313 33.6836 48.8476 33.6836Z" fill="#D6DDE8"></path><path d="M5.88519 191.751H5.56276C4.99853 191.751 4.5955 191.348 4.5955 190.784V190.461C4.5955 190.058 4.27308 189.655 3.78945 189.655C3.38642 189.655 2.98339 189.977 2.98339 190.461V190.784C2.98339 191.348 2.58037 191.751 2.01613 191.751H1.77431C1.37129 191.751 0.968262 192.073 0.968262 192.557C0.968262 192.96 1.29068 193.363 1.77431 193.363H2.09674C2.66097 193.363 3.064 193.766 3.064 194.33V194.653C3.064 195.056 3.38642 195.459 3.87005 195.459C4.27308 195.459 4.67611 195.136 4.67611 194.653V194.33C4.67611 193.766 5.07913 193.363 5.64337 193.363H5.96579C6.36882 193.363 6.77184 193.04 6.77184 192.557C6.69124 192.073 6.36882 191.751 5.88519 191.751Z" fill="#D6DDE8"></path><path d="M124.214 94.8632H123.891C123.327 94.8632 122.924 94.4602 122.924 93.8959V93.5735C122.924 93.1705 122.602 92.7675 122.118 92.7675C121.715 92.7675 121.312 93.0899 121.312 93.5735V93.8959C121.312 94.4602 120.909 94.8632 120.345 94.8632H120.022C119.619 94.8632 119.216 95.1856 119.216 95.6692C119.216 96.0723 119.539 96.4753 120.022 96.4753H120.345C120.909 96.4753 121.312 96.8783 121.312 97.4426V97.765C121.312 98.168 121.634 98.571 122.118 98.571C122.521 98.571 122.924 98.2486 122.924 97.765V97.4426C122.924 96.8783 123.327 96.4753 123.891 96.4753H124.214C124.617 96.4753 125.02 96.1529 125.02 95.6692C125.02 95.1856 124.617 94.8632 124.214 94.8632Z" fill="#D6DDE8"></path><path d="M102.531 188.849H102.209C101.645 188.849 101.242 188.446 101.242 187.882V187.559C101.242 187.156 100.919 186.753 100.435 186.753C100.032 186.753 99.6294 187.076 99.6294 187.559V187.882C99.6294 188.446 99.2264 188.849 98.6622 188.849H98.3397C97.9367 188.849 97.5337 189.171 97.5337 189.655C97.5337 190.058 97.8561 190.461 98.3397 190.461H98.6622C99.2264 190.461 99.6294 190.864 99.6294 191.428V191.751C99.6294 192.154 99.9518 192.557 100.435 192.557C100.839 192.557 101.242 192.234 101.242 191.751V191.428C101.242 190.864 101.645 190.461 102.209 190.461H102.531C102.934 190.461 103.337 190.139 103.337 189.655C103.257 189.171 102.934 188.849 102.531 188.849Z" fill="#D6DDE8"></path><path d="M241.656 22.7214C239.157 22.7214 237.142 20.7063 237.142 18.2075C237.142 15.7087 239.157 13.6936 241.656 13.6936C244.154 13.6936 246.169 15.7087 246.169 18.2075C246.169 20.7063 244.074 22.7214 241.656 22.7214ZM241.656 16.1924C240.527 16.1924 239.56 17.079 239.56 18.2881C239.56 19.4972 240.446 20.3838 241.656 20.3838C242.784 20.3838 243.751 19.4972 243.751 18.2881C243.751 17.079 242.784 16.1924 241.656 16.1924Z" fill="#D6DDE8"></path><path d="M84.1531 72.3742C81.6543 72.3742 79.6392 70.3591 79.6392 67.8603C79.6392 65.3616 81.6543 63.3464 84.1531 63.3464C86.6518 63.3464 88.667 65.3616 88.667 67.8603C88.667 70.3591 86.5712 72.3742 84.1531 72.3742ZM84.1531 65.8452C83.0246 65.8452 82.0573 66.7319 82.0573 67.9409C82.0573 69.15 82.944 70.0367 84.1531 70.0367C85.3621 70.0367 86.2488 69.15 86.2488 67.9409C86.2488 66.7319 85.2815 65.8452 84.1531 65.8452Z" fill="#D6DDE8"></path><path d="M278.492 36.7467C276.719 36.7467 275.188 35.2958 275.188 33.4419C275.188 31.588 276.638 30.1371 278.492 30.1371C280.266 30.1371 281.797 31.588 281.797 33.4419C281.797 35.2958 280.266 36.7467 278.492 36.7467ZM278.492 31.9104C277.686 31.9104 276.961 32.5552 276.961 33.4419C276.961 34.3286 277.606 34.9734 278.492 34.9734C279.298 34.9734 280.024 34.3286 280.024 33.4419C280.024 32.5552 279.298 31.9104 278.492 31.9104Z" fill="#D6DDE8"></path><path d="M302.674 298.795C300.901 298.795 299.369 297.344 299.369 295.49C299.369 293.716 300.82 292.185 302.674 292.185C304.447 292.185 305.979 293.636 305.979 295.49C305.898 297.344 304.447 298.795 302.674 298.795ZM302.674 294.039C301.868 294.039 301.142 294.684 301.142 295.57C301.142 296.376 301.787 297.102 302.674 297.102C303.48 297.102 304.205 296.457 304.205 295.57C304.205 294.684 303.48 294.039 302.674 294.039Z" fill="#D6DDE8"></path><path d="M173.947 294.603H148.073C147.508 294.603 147.105 294.2 147.105 293.636C147.105 293.072 147.508 292.669 148.073 292.669H173.947C174.511 292.669 174.914 293.072 174.914 293.636C174.914 294.2 174.431 294.603 173.947 294.603Z" fill="#AAB2C5" stroke="#AAB2C5" stroke-width="2" stroke-miterlimit="10" stroke-linecap="round" stroke-linejoin="round"></path><path d="M172.657 288.397C173.383 288.88 173.866 289.686 173.866 290.492V292.588H148.395V290.412C148.395 289.606 148.798 288.8 149.443 288.316L152.748 286.059H152.828V276.951H169.03V286.22L172.657 288.397Z" fill="#D6DCE8" stroke="#AAB2C5" stroke-width="2" stroke-miterlimit="10" stroke-linecap="round" stroke-linejoin="round"></path><path opacity="0.3" d="M173.786 290.573V292.669H166.29V290.573C166.29 289.686 166.128 288.88 165.806 288.477L164.355 286.22V276.951H169.03V286.22L172.657 288.477C173.383 288.88 173.786 289.686 173.786 290.573Z" fill="#AAB2C5"></path><path d="M162.662 71.6489C161.695 70.7622 160.164 70.7622 159.196 71.6489C154.441 75.6791 147.025 89.9463 147.025 105.1V283.157C147.025 284.85 148.395 286.14 150.007 286.14H160.889H171.851C173.544 286.14 174.834 284.769 174.834 283.157V105.1C174.914 89.9463 167.418 75.7598 162.662 71.6489Z" fill="#F1F3FA" stroke="#AAB2C5" stroke-width="2" stroke-miterlimit="10"></path><path opacity="0.3" d="M174.914 105.1V283.157C174.914 284.85 173.544 286.22 171.851 286.22H164.113C164.597 286.22 165 284.85 165 283.157V105.1C165 89.9463 162.824 75.7597 161.453 71.6489C161.292 71.2458 161.131 71.004 160.97 71.004C161.615 71.004 162.179 71.2458 162.662 71.6489C167.418 75.7597 174.914 89.9463 174.914 105.1Z" fill="#AAB2C5"></path><path d="M160.97 71.004C160.809 71.004 160.728 71.2458 160.647 71.6489C159.68 75.7597 158.149 89.9463 158.149 105.1V283.157C158.149 284.85 158.391 286.22 158.794 286.22H153.554C152.426 286.22 151.539 284.85 151.539 283.157V105.1C151.539 89.9463 156.617 75.7597 159.841 71.6489C160.083 71.2458 160.567 71.004 160.97 71.004Z" fill="white"></path><path d="M211.671 25.7038C209.333 24.5753 205.867 24.5753 203.529 25.7038C192.487 31.2655 174.834 57.3011 174.834 78.0166C174.834 101.473 174.834 275.338 174.834 275.338H207.56H240.285C240.285 275.338 240.285 101.473 240.285 78.0166C240.285 57.3817 222.714 31.3461 211.671 25.7038Z" fill="#D6DCE8" stroke="#AAB2C5" stroke-width="2" stroke-miterlimit="10" stroke-linecap="round" stroke-linejoin="round"></path><path opacity="0.5" d="M240.285 78.0973C240.285 101.553 240.285 275.419 240.285 275.419H221.182C221.182 275.419 221.182 101.553 221.182 78.0973C221.182 57.3818 213.847 31.3463 209.252 25.7845C208.769 25.2202 208.124 24.8978 207.56 24.8978C209.01 24.8978 210.461 25.2202 211.59 25.7845C222.713 31.3463 240.285 57.3818 240.285 78.0973Z" fill="#AAB2C5"></path><path d="M207.559 24.8978C207.076 24.8978 206.592 25.2202 206.27 25.7845C202.643 31.3463 197 57.3818 197 78.0973C197 101.553 197 275.419 197 275.419H183.458C183.458 275.419 183.458 101.553 183.458 78.0973C183.458 57.3818 196.436 31.3463 204.658 25.7845C205.464 25.1396 206.512 24.8978 207.559 24.8978Z" fill="white"></path><path d="M211.671 25.7038C209.333 24.5753 205.867 24.5753 203.529 25.7038C192.487 31.2655 174.834 57.3011 174.834 78.0166C174.834 101.473 174.834 275.338 174.834 275.338H207.56H240.285C240.285 275.338 240.285 101.473 240.285 78.0166C240.285 57.3817 222.714 31.3461 211.671 25.7038Z" stroke="#AAB2C5" stroke-width="2" stroke-miterlimit="10" stroke-linecap="round" stroke-linejoin="round"></path><path d="M192.728 93.0898H240.285" stroke="#AAB2C5" stroke-width="2" stroke-miterlimit="10" stroke-linecap="round" stroke-linejoin="round"></path><path d="M187.811 93.0898H188.053" stroke="#AAB2C5" stroke-width="2" stroke-miterlimit="10" stroke-linecap="round" stroke-linejoin="round"></path><path d="M174.834 93.0898H183.056" stroke="#AAB2C5" stroke-width="2" stroke-miterlimit="10" stroke-linecap="round" stroke-linejoin="round"></path><path d="M190.391 128.073H240.285" stroke="#AAB2C5" stroke-width="2" stroke-miterlimit="10" stroke-linecap="round" stroke-linejoin="round"></path><path d="M174.834 128.073H183.378" stroke="#AAB2C5" stroke-width="2" stroke-miterlimit="10" stroke-linecap="round" stroke-linejoin="round"></path><path d="M161.695 107.518H174.915" stroke="#AAB2C5" stroke-width="2" stroke-miterlimit="10" stroke-linecap="round" stroke-linejoin="round"></path><path d="M156.214 107.518H157.101" stroke="#AAB2C5" stroke-width="2" stroke-miterlimit="10" stroke-linecap="round" stroke-linejoin="round"></path><path d="M147.025 107.518H152.748" stroke="#AAB2C5" stroke-width="2" stroke-miterlimit="10" stroke-linecap="round" stroke-linejoin="round"></path><path d="M157.584 144.355H174.915" stroke="#AAB2C5" stroke-width="2" stroke-miterlimit="10" stroke-linecap="round" stroke-linejoin="round"></path><path d="M152.264 144.355H152.99" stroke="#AAB2C5" stroke-width="2" stroke-miterlimit="10" stroke-linecap="round" stroke-linejoin="round"></path><path d="M147.025 172.244H174.914" stroke="#AAB2C5" stroke-width="2" stroke-miterlimit="10" stroke-linecap="round" stroke-linejoin="round"></path><path d="M162.662 71.6489C161.695 70.7622 160.164 70.7622 159.196 71.6489C154.441 75.6791 147.025 89.9463 147.025 105.1V283.157C147.025 284.85 148.395 286.14 150.007 286.14H160.889H171.851C173.544 286.14 174.834 284.769 174.834 283.157V105.1C174.914 89.9463 167.418 75.7598 162.662 71.6489Z" stroke="#AAB2C5" stroke-width="2" stroke-miterlimit="10"></path><path d="M267.207 294.603H241.333C240.769 294.603 240.366 294.2 240.366 293.636C240.366 293.072 240.769 292.669 241.333 292.669H267.207C267.772 292.669 268.175 293.072 268.175 293.636C268.175 294.2 267.691 294.603 267.207 294.603Z" fill="#AAB2C5" stroke="#AAB2C5" stroke-width="2" stroke-miterlimit="10" stroke-linecap="round" stroke-linejoin="round"></path><path d="M265.918 288.397C266.643 288.88 267.127 289.686 267.127 290.492V292.588H241.656V290.412C241.656 289.606 242.059 288.8 242.704 288.316L246.008 286.059H246.089V276.951H262.291V286.22L265.918 288.397Z" fill="#D6DCE8" stroke="#AAB2C5" stroke-width="2" stroke-miterlimit="10" stroke-linecap="round" stroke-linejoin="round"></path><path opacity="0.3" d="M267.046 290.573V292.669H260.356V290.573C260.356 289.686 260.114 288.88 259.792 288.477L258.099 286.22V276.951H262.291V286.22L265.918 288.477C266.643 288.88 267.046 289.686 267.046 290.573Z" fill="#AAB2C5"></path><path d="M255.923 71.6489C254.955 70.7622 253.424 70.7622 252.457 71.6489C247.701 75.6791 240.285 89.9463 240.285 105.1V283.157C240.285 284.85 241.655 286.14 243.268 286.14H254.149H265.031C266.724 286.14 268.013 284.769 268.013 283.157V105.1C268.175 89.9463 260.678 75.7598 255.923 71.6489Z" fill="#F1F3FA" stroke="#AAB2C5" stroke-width="2" stroke-miterlimit="10"></path><path opacity="0.3" d="M268.175 105.1V283.157C268.175 284.85 266.804 286.22 265.112 286.22H257.374C257.857 286.22 258.26 284.85 258.26 283.157V105.1C258.26 89.9463 256.084 75.7597 254.714 71.6489C254.552 71.2458 254.391 71.004 254.23 71.004C254.875 71.004 255.439 71.2458 255.923 71.6489C260.678 75.7597 268.175 89.9463 268.175 105.1Z" fill="#AAB2C5"></path><path d="M254.23 71.004C254.069 71.004 253.988 71.2458 253.908 71.6489C252.94 75.7597 251.409 89.9463 251.409 105.1V283.157C251.409 284.85 251.651 286.22 252.054 286.22H246.814C245.686 286.22 244.799 284.85 244.799 283.157V105.1C244.799 89.9463 249.877 75.7597 253.102 71.6489C253.424 71.2458 253.827 71.004 254.23 71.004Z" fill="white"></path><path d="M251.409 107.518H268.175" stroke="#AAB2C5" stroke-width="2" stroke-miterlimit="10" stroke-linecap="round" stroke-linejoin="round"></path><path d="M240.285 107.518H246.008" stroke="#AAB2C5" stroke-width="2" stroke-miterlimit="10" stroke-linecap="round" stroke-linejoin="round"></path><path d="M252.86 144.355H268.175" stroke="#AAB2C5" stroke-width="2" stroke-miterlimit="10" stroke-linecap="round" stroke-linejoin="round"></path><path d="M240.285 144.355H246.25" stroke="#AAB2C5" stroke-width="2" stroke-miterlimit="10" stroke-linecap="round" stroke-linejoin="round"></path><path d="M240.285 172.244H268.175" stroke="#AAB2C5" stroke-width="2" stroke-miterlimit="10" stroke-linecap="round" stroke-linejoin="round"></path><path d="M255.923 71.6489C254.955 70.7622 253.424 70.7622 252.457 71.6489C247.701 75.6791 240.285 89.9463 240.285 105.1V283.157C240.285 284.85 241.655 286.14 243.268 286.14H254.149H265.031C266.724 286.14 268.013 284.769 268.013 283.157V105.1C268.175 89.9463 260.678 75.7598 255.923 71.6489Z" stroke="#AAB2C5" stroke-width="2" stroke-miterlimit="10"></path><path d="M188.78 131.297L190.15 126.138L193.536 125.332L199.178 124.042L199.823 123.881L200.306 131.297L208.689 253.656L190.553 278.401L183.46 277.192L134.129 268.729C131.066 268.245 128.89 265.585 128.89 262.522V239.227C128.89 236.487 130.019 233.746 131.953 231.811L165.163 198.118C170.563 192.637 174.432 185.866 176.367 178.451L183.46 151.69L188.78 131.297Z" fill="white" stroke="#AAB2C5" stroke-width="2" stroke-miterlimit="10" stroke-linecap="round" stroke-linejoin="round"></path><path d="M193.454 125.332V159.106L189.826 163.136L189.504 160.959C189.343 159.912 188.456 159.106 187.408 159.106C186.441 159.106 185.635 159.75 185.312 160.637L175.64 196.345C174.995 198.763 173.705 200.94 172.013 202.713L135.74 239.066C135.015 239.791 134.612 240.759 134.612 241.726V249.625C134.612 251.721 136.304 253.414 138.4 253.414H184.748L185.796 260.91C185.796 261.394 138.884 260.991 128.808 260.91V239.066C128.808 236.325 129.856 233.585 131.871 231.65L165.08 197.957C170.481 192.476 174.35 185.705 176.285 178.29L190.068 126.057L193.454 125.332Z" fill="#AAB2C5"></path><path opacity="0.2" d="M208.688 253.656L190.552 278.321L183.378 277.112V151.609L188.778 131.297H200.305L208.688 253.656Z" fill="#99A8CC"></path><path d="M161.211 233.263C161.292 233.182 161.292 233.101 161.373 233.021Z" fill="white"></path><path d="M161.211 233.263C161.292 233.182 161.292 233.101 161.373 233.021" stroke="#AAB2C5" stroke-width="2" stroke-miterlimit="10" stroke-linecap="round" stroke-linejoin="round"></path><path d="M172.335 243.58C171.045 244.708 169.353 245.353 167.499 245.353C163.307 245.353 159.841 241.968 159.841 237.696C159.841 237.534 159.841 237.373 159.841 237.293" fill="white"></path><path d="M172.335 243.58C171.045 244.708 169.353 245.353 167.499 245.353C163.307 245.353 159.841 241.968 159.841 237.696C159.841 237.534 159.841 237.373 159.841 237.293" stroke="#AAB2C5" stroke-width="2" stroke-miterlimit="10" stroke-linecap="round" stroke-linejoin="round"></path><path d="M166.37 230.119C166.693 230.038 167.096 230.038 167.418 230.038C171.609 230.038 175.075 233.424 175.075 237.696C175.075 238.502 174.995 239.227 174.753 239.953" fill="white"></path><path d="M166.37 230.119C166.693 230.038 167.096 230.038 167.418 230.038C171.609 230.038 175.075 233.424 175.075 237.696C175.075 238.502 174.995 239.227 174.753 239.953" stroke="#AAB2C5" stroke-width="2" stroke-miterlimit="10" stroke-linecap="round" stroke-linejoin="round"></path><path d="M288.729 239.147V262.442C288.729 265.505 286.553 268.164 283.49 268.648L246.492 275.016L227.066 278.321L208.93 253.656L217.796 123.881L218.441 124.042L224.083 125.412L227.469 126.219L239.802 172.728L241.333 178.451C243.268 185.866 247.137 192.637 252.537 198.118L285.747 231.811C287.681 233.746 288.729 236.406 288.729 239.147Z" fill="white" stroke="#AAB2C5" stroke-width="2" stroke-miterlimit="10" stroke-linecap="round" stroke-linejoin="round"></path><path d="M258.018 228.426H242.703V239.308H258.018V228.426Z" stroke="#AAB2C5" stroke-width="2" stroke-miterlimit="10" stroke-linecap="round" stroke-linejoin="round"></path><path d="M250.683 228.426H242.703V234.391H250.683V228.426Z" fill="#AAB2C5"></path><path d="M224.083 125.332V159.106L227.711 163.136L228.033 160.959C228.194 159.912 229.081 159.106 230.129 159.106C231.096 159.106 231.902 159.75 232.225 160.637L241.978 196.345C242.623 198.763 243.912 200.94 245.605 202.713L281.878 239.066C282.603 239.791 283.006 240.759 283.006 241.726V249.625C283.006 251.721 281.313 253.414 279.218 253.414H232.95L231.902 260.91C231.902 261.394 278.815 260.991 288.89 260.91V239.066C288.89 236.325 287.842 233.585 285.827 231.65L252.457 198.038C247.056 192.557 243.187 185.786 241.252 178.37L227.469 126.138L224.083 125.332Z" fill="#AAB2C5"></path><path opacity="0.3" d="M246.492 252.527V275.016L227.066 278.321L208.93 253.656L217.796 123.881L218.441 124.042L224.083 125.412L227.469 126.219L239.802 172.728V242.935C243.671 244.305 246.492 248.094 246.492 252.527Z" fill="#99A8CC"></path><path d="M227.711 119.528V275.419H189.262V119.528C189.262 112.758 190.713 106.067 193.615 99.9413C194.179 98.8128 194.743 97.6037 195.388 96.4753V96.3947L203.449 83.0142C205.706 79.2257 211.187 79.2257 213.524 83.0142L221.585 96.3947V96.4753C222.23 97.6037 222.794 98.7322 223.358 99.8607C226.26 106.067 227.711 112.758 227.711 119.528Z" fill="white" stroke="#AAB2C5" stroke-width="2" stroke-miterlimit="10" stroke-linecap="round" stroke-linejoin="round"></path><path opacity="0.3" d="M227.711 119.528V275.419H216.184V119.528C216.184 112.757 215.62 106.067 214.411 99.9413C214.169 98.8128 214.008 97.6843 213.686 96.5558V96.4752L210.461 83.0947C209.978 81.1602 209.252 80.2736 208.446 80.2736C210.381 80.2736 212.315 81.2408 213.444 83.0947L221.504 96.4752V96.5558C222.149 97.6843 222.713 98.8128 223.278 99.9413C226.26 106.067 227.711 112.757 227.711 119.528Z" fill="#99A8CC"></path><path d="M223.358 99.9413C221.988 97.8456 219.65 96.4753 217.071 96.4753H200.063C197.484 96.4753 195.066 97.8456 193.695 99.9413C194.26 98.8128 194.824 97.6037 195.469 96.4753V96.3947L203.529 83.0142C205.786 79.2257 211.267 79.2257 213.605 83.0142L221.665 96.3947V96.4753C222.23 97.6037 222.874 98.7322 223.358 99.9413Z" fill="#AAB2C5"></path><path d="M217.151 117.03C217.151 117.674 216.426 117.916 216.023 117.433C215.136 116.304 213.766 115.659 212.154 115.659H204.738C203.287 115.659 201.917 116.304 201.03 117.352C200.95 117.433 200.95 117.433 200.869 117.513C200.466 117.997 199.741 117.674 199.741 117.11C199.741 116.627 199.741 115.982 199.741 115.176C199.741 112.435 201.998 110.259 204.738 110.259H212.154C212.315 110.259 212.476 110.259 212.638 110.259C213.363 110.339 214.008 110.581 214.653 110.904C216.104 111.79 217.151 113.402 217.151 115.176C217.151 115.982 217.151 116.546 217.151 117.03Z" fill="#AAB2C5"></path><path d="M208.527 163.458H227.711" stroke="#AAB2C5" stroke-width="2" stroke-miterlimit="10" stroke-linecap="round" stroke-linejoin="round"></path><path d="M204.335 163.458H205.142" stroke="#AAB2C5" stroke-width="2" stroke-miterlimit="10" stroke-linecap="round" stroke-linejoin="round"></path><path d="M189.343 163.458H198.29" stroke="#AAB2C5" stroke-width="2" stroke-miterlimit="10" stroke-linecap="round" stroke-linejoin="round"></path><path d="M202.643 206.34H227.711" stroke="#AAB2C5" stroke-width="2" stroke-miterlimit="10" stroke-linecap="round" stroke-linejoin="round"></path><path d="M196.033 206.34H198.29" stroke="#AAB2C5" stroke-width="2" stroke-miterlimit="10" stroke-linecap="round" stroke-linejoin="round"></path><path d="M198.451 242.21H193.776C188.053 242.21 183.458 246.804 183.458 252.527V278.482H208.769V252.527C208.688 246.804 204.093 242.21 198.451 242.21Z" fill="white" stroke="#AAB2C5" stroke-width="2" stroke-miterlimit="10" stroke-linecap="round" stroke-linejoin="round"></path><path opacity="0.3" d="M208.688 252.527V278.482H198.612V244.789C198.612 243.338 197.484 242.21 196.033 242.21H198.37C204.093 242.21 208.688 246.804 208.688 252.527Z" fill="#99A8CC"></path><path d="M223.519 242.21H218.844C213.121 242.21 208.527 246.804 208.527 252.527V278.482H233.837V252.527C233.837 246.804 229.242 242.21 223.519 242.21Z" fill="#F1F3FA" stroke="#AAB2C5" stroke-width="2" stroke-miterlimit="10"></path><path d="M220.859 242.29C220.134 242.451 219.65 243.096 219.65 243.822V278.563H217.312V246.159C217.312 244.064 218.844 242.451 220.859 242.29Z" fill="white"></path><path opacity="0.3" d="M233.837 252.527V278.482H225.051V245.595C225.051 243.741 223.519 242.21 221.666 242.21H223.519C229.242 242.21 233.837 246.804 233.837 252.527Z" fill="#AAB2C5"></path><path opacity="0.1" d="M208.446 252.527V278.482H217.232V245.595C217.232 243.741 218.764 242.21 220.618 242.21H218.764C213.121 242.21 208.446 246.804 208.446 252.527Z" fill="#AAB2C5"></path><path d="M223.519 242.21H218.844C213.121 242.21 208.527 246.804 208.527 252.527V278.482H233.837V252.527C233.837 246.804 229.242 242.21 223.519 242.21Z" stroke="#AAB2C5" stroke-width="2" stroke-miterlimit="10"></path><path d="M221.826 278.321H195.227L189.745 282.029C188.617 282.835 187.972 284.044 187.972 285.414V289.041H229.887V285.575C229.887 284.124 229.161 282.835 227.952 282.109L221.826 278.321Z" fill="#D6DCE8" stroke="#AAB2C5" stroke-width="2" stroke-miterlimit="10" stroke-linecap="round" stroke-linejoin="round"></path><path opacity="0.3" d="M229.887 285.656V289.122H217.313V285.656C217.313 284.205 216.99 282.915 216.507 282.109L214.088 278.321H221.826L227.953 282.109C229.162 282.835 229.887 284.205 229.887 285.656Z" fill="#AAB2C5"></path><path d="M231.66 290.734C231.66 291.621 230.935 292.346 230.048 292.346H187.489C186.602 292.346 185.876 291.621 185.876 290.734C185.876 289.847 186.602 289.122 187.489 289.122H230.048C230.935 289.122 231.66 289.847 231.66 290.734Z" fill="#AAB2C5" stroke="#AAB2C5" stroke-width="2" stroke-miterlimit="10" stroke-linecap="round" stroke-linejoin="round"></path><path d="M205.947 138.874H204.174C203.287 138.874 202.562 138.148 202.562 137.262V135.488C202.562 134.602 203.287 133.876 204.174 133.876H205.947C206.834 133.876 207.56 134.602 207.56 135.488V137.262C207.56 138.148 206.834 138.874 205.947 138.874Z" fill="#AAB2C5"></path><path d="M213.444 138.874H211.67C210.784 138.874 210.058 138.148 210.058 137.262V135.488C210.058 134.602 210.784 133.876 211.67 133.876H213.444C214.33 133.876 215.056 134.602 215.056 135.488V137.262C215.056 138.148 214.33 138.874 213.444 138.874Z" fill="#AAB2C5"></path><path d="M211.106 295.57H205.867V235.923C205.867 234.472 207.076 233.343 208.446 233.343C209.897 233.343 211.025 234.552 211.025 235.923V295.57H211.106Z" fill="white" stroke="#AAB2C5" stroke-width="2" stroke-miterlimit="10" stroke-linecap="round" stroke-linejoin="round"></path><path d="M169.917 334.342C173.141 331.682 177.333 330.069 181.927 330.069C189.343 330.069 195.711 334.342 198.774 340.548" stroke="#AAB2C5" stroke-width="2" stroke-miterlimit="10" stroke-linecap="round" stroke-linejoin="round"></path><path opacity="0.3" d="M209.494 110.178L206.593 115.659H204.739C203.288 115.659 201.917 116.304 201.031 117.352L204.819 110.178H209.494Z" fill="white"></path><path opacity="0.3" d="M214.653 110.823L212.154 115.659H209.736L212.638 110.178C213.363 110.259 214.008 110.501 214.653 110.823Z" fill="white"></path><path d="M60.5354 382.705C60.2935 380.448 60.1323 378.191 60.1323 375.934C60.1323 342.966 86.8127 316.286 119.78 316.286C147.267 316.286 170.4 334.825 177.332 360.135" stroke="#AAB2C5" stroke-width="2" stroke-miterlimit="10" stroke-linecap="round" stroke-linejoin="round"></path><path d="M67.1453 403.984C64.566 399.148 62.6314 393.828 61.4224 388.347" stroke="#AAB2C5" stroke-width="2" stroke-miterlimit="10" stroke-linecap="round" stroke-linejoin="round"></path><path d="M177.816 359.893C178.461 349.092 187.489 340.468 198.451 340.468C202.562 340.468 206.351 341.677 209.575 343.692" stroke="#AAB2C5" stroke-width="2" stroke-miterlimit="10" stroke-linecap="round" stroke-linejoin="round"></path><path d="M218.441 329.102C221.746 326.845 225.777 325.556 230.049 325.556C236.9 325.556 242.865 328.861 246.653 333.939" stroke="#AAB2C5" stroke-width="2" stroke-miterlimit="10" stroke-linecap="round" stroke-linejoin="round"></path><path d="M339.994 362.715C342.815 368.518 344.347 374.967 344.347 381.818C344.347 385.365 343.944 388.831 343.138 392.136" stroke="#AAB2C5" stroke-width="2" stroke-miterlimit="10" stroke-linecap="round" stroke-linejoin="round"></path><path d="M263.983 356.669C271.963 345.223 285.183 337.727 300.175 337.727C314.442 337.727 327.178 344.498 335.239 355.057" stroke="#AAB2C5" stroke-width="2" stroke-miterlimit="10" stroke-linecap="round" stroke-linejoin="round"></path><path d="M344.347 378.755C344.75 378.755 345.153 378.755 345.556 378.755C356.276 378.755 364.982 387.461 364.982 398.181C364.982 402.05 363.853 405.597 361.919 408.579" stroke="#AAB2C5" stroke-width="2" stroke-miterlimit="10" stroke-linecap="round" stroke-linejoin="round"></path><path opacity="0.3" d="M344.347 381.899C344.347 412.69 313.556 433.97 284.78 423.249C312.347 429.295 338.463 408.337 338.463 380.125C338.463 361.183 326.533 344.981 309.687 338.775C329.516 343.127 344.347 360.78 344.347 381.899Z" fill="#99A8CC"></path><path d="M320.004 421.315C319.279 421.718 318.553 422.04 317.828 422.363" stroke="#AAB2C5" stroke-width="2" stroke-miterlimit="10" stroke-linecap="round" stroke-linejoin="round"></path><path d="M343.218 391.652C340.8 402.211 334.674 411.32 326.21 417.526" stroke="#AAB2C5" stroke-width="2" stroke-miterlimit="10" stroke-linecap="round" stroke-linejoin="round"></path><path d="M129.775 390.443C134.934 391.249 139.045 395.118 140.254 400.116" stroke="#AAB2C5" stroke-width="2" stroke-miterlimit="10" stroke-linecap="round" stroke-linejoin="round"></path><path d="M135.015 392.216C139.126 385.768 146.38 381.415 154.602 381.415C159.277 381.415 163.63 382.785 167.257 385.203" stroke="#AAB2C5" stroke-width="2" stroke-miterlimit="10" stroke-linecap="round" stroke-linejoin="round"></path><path d="M163.307 383.108C163.227 382.543 163.227 381.979 163.227 381.415C163.227 368.599 173.625 358.281 186.36 358.281C199.096 358.281 209.494 368.679 209.494 381.415C209.494 383.108 209.333 384.72 209.01 386.332" stroke="#AAB2C5" stroke-width="2" stroke-miterlimit="10" stroke-linecap="round" stroke-linejoin="round"></path><path d="M209.011 386.332C210.784 388.025 212.316 390.04 213.363 392.297" stroke="#AAB2C5" stroke-width="2" stroke-miterlimit="10" stroke-linecap="round" stroke-linejoin="round"></path><path d="M210.784 398.665C214.653 385.203 226.985 375.37 241.736 375.37C257.051 375.37 269.867 386.09 273.092 400.357" stroke="#AAB2C5" stroke-width="2" stroke-miterlimit="10" stroke-linecap="round" stroke-linejoin="round"></path><path opacity="0.3" d="M231.58 438C218.764 433.728 209.494 421.718 209.494 407.451C209.494 392.539 219.65 380.045 233.353 376.337C206.995 387.863 205.948 425.023 231.58 438Z" fill="#99A8CC"></path><path d="M209.575 405.919C209.575 405.355 209.655 404.871 209.655 404.388" stroke="#AAB2C5" stroke-width="2" stroke-miterlimit="10" stroke-linecap="round" stroke-linejoin="round"></path><path d="M262.532 425.99C262.452 425.184 262.371 424.458 262.371 423.652C262.371 414.786 269.545 407.531 278.492 407.531C287.359 407.531 294.613 414.705 294.613 423.652" stroke="#AAB2C5" stroke-width="2" stroke-miterlimit="10" stroke-linecap="round" stroke-linejoin="round"></path><path d="M386.423 381.979C387.551 380.206 389.566 378.997 391.823 378.997C395.289 378.997 398.111 381.818 398.111 385.284" stroke="#AAB2C5" stroke-width="2" stroke-miterlimit="10" stroke-linecap="round" stroke-linejoin="round"></path><path d="M385.617 386.493C385.617 386.413 385.617 386.332 385.536 386.251" stroke="#AAB2C5" stroke-width="2" stroke-miterlimit="10" stroke-linecap="round" stroke-linejoin="round"></path><path d="M396.498 389.476C395.37 390.765 393.677 391.571 391.743 391.571C389.566 391.571 387.712 390.523 386.584 388.911" stroke="#AAB2C5" stroke-width="2" stroke-miterlimit="10" stroke-linecap="round" stroke-linejoin="round"></path><path d="M152.023 403.501C153.151 401.728 155.167 400.519 157.424 400.519C160.89 400.519 163.711 403.34 163.711 406.806" stroke="#AAB2C5" stroke-width="2" stroke-miterlimit="10" stroke-linecap="round" stroke-linejoin="round"></path><path d="M151.217 408.095C151.217 408.015 151.217 407.934 151.136 407.854" stroke="#AAB2C5" stroke-width="2" stroke-miterlimit="10" stroke-linecap="round" stroke-linejoin="round"></path><path d="M162.099 410.997C160.97 412.287 159.277 413.093 157.343 413.093C155.166 413.093 153.313 412.045 152.184 410.433" stroke="#AAB2C5" stroke-width="2" stroke-miterlimit="10" stroke-linecap="round" stroke-linejoin="round"></path><path d="M44.6562 409.707C52.475 406.08 61.1803 403.984 70.2887 403.984C71.9814 403.984 73.6742 404.065 75.2863 404.226" stroke="#AAB2C5" stroke-width="2" stroke-miterlimit="10" stroke-linecap="round" stroke-linejoin="round"></path><path d="M34.9033 415.43C36.3542 414.382 37.8051 413.415 39.3366 412.529" stroke="#AAB2C5" stroke-width="2" stroke-miterlimit="10" stroke-linecap="round" stroke-linejoin="round"></path><path d="M389.083 414.221C381.264 410.594 372.559 408.498 363.45 408.498C361.757 408.498 360.065 408.579 358.453 408.74" stroke="#AAB2C5" stroke-width="2" stroke-miterlimit="10" stroke-linecap="round" stroke-linejoin="round"></path><path d="M295.017 206.26C295.017 199.811 300.256 194.572 306.704 194.572C307.994 194.572 309.203 194.814 310.412 195.136" stroke="#AAB2C5" stroke-width="2" stroke-miterlimit="10" stroke-linecap="round" stroke-linejoin="round"></path><path d="M372.962 207.469H393.597" stroke="#AAB2C5" stroke-width="2" stroke-miterlimit="10" stroke-linecap="round" stroke-linejoin="round"></path><path d="M338.06 199.408C342.493 199.408 346.04 202.955 346.04 207.388H363.451" stroke="#AAB2C5" stroke-width="2" stroke-miterlimit="10" stroke-linecap="round" stroke-linejoin="round"></path><path d="M310.493 195.136C312.266 189.574 317.505 185.544 323.712 185.544C331.369 185.544 337.576 191.751 337.576 199.408" stroke="#AAB2C5" stroke-width="2" stroke-miterlimit="10" stroke-linecap="round" stroke-linejoin="round"></path><path d="M122.118 223.026C122.118 220.043 119.7 217.545 116.637 217.545C116.073 217.545 115.428 217.625 114.944 217.786" stroke="#AAB2C5" stroke-width="2" stroke-miterlimit="10" stroke-linecap="round" stroke-linejoin="round"></path><path d="M85.7649 223.509H76.0923" stroke="#AAB2C5" stroke-width="2" stroke-miterlimit="10" stroke-linecap="round" stroke-linejoin="round"></path><path d="M102.047 219.801C99.9515 219.801 98.3394 221.494 98.3394 223.509H90.1982" stroke="#AAB2C5" stroke-width="2" stroke-miterlimit="10" stroke-linecap="round" stroke-linejoin="round"></path><path d="M114.863 217.786C114.057 215.207 111.559 213.272 108.737 213.272C105.191 213.272 102.289 216.174 102.289 219.721" stroke="#AAB2C5" stroke-width="2" stroke-miterlimit="10" stroke-linecap="round" stroke-linejoin="round"></path><path d="M16.3643 266.552C16.3643 263.086 19.1854 260.185 22.7321 260.185C23.4575 260.185 24.1024 260.265 24.7472 260.507" stroke="#AAB2C5" stroke-width="2" stroke-miterlimit="10" stroke-linecap="round" stroke-linejoin="round"></path><path d="M39.6592 262.845C42.0773 262.845 44.0119 264.779 44.0119 267.197H53.4427" stroke="#AAB2C5" stroke-width="2" stroke-miterlimit="10" stroke-linecap="round" stroke-linejoin="round"></path><path d="M24.7471 260.588C25.7143 257.605 28.5355 255.348 31.9209 255.348C36.0318 255.348 39.4172 258.734 39.4172 262.845" stroke="#AAB2C5" stroke-width="2" stroke-miterlimit="10" stroke-linecap="round" stroke-linejoin="round"></path><path opacity="0.3" d="M297.515 337.808C306.382 318.543 325.888 305.162 348.538 305.162C379.571 305.162 404.72 330.311 404.72 361.344C404.72 376.498 398.755 390.282 389.002 400.357" stroke="#AAB2C5" stroke-width="2" stroke-miterlimit="10" stroke-linecap="round" stroke-linejoin="round"></path><path opacity="0.3" d="M5.88548 393.909C0.162503 373.435 6.36911 350.624 23.6186 336.034C41.0294 321.283 64.808 318.946 84.1532 328.135" stroke="#AAB2C5" stroke-width="2" stroke-miterlimit="10" stroke-linecap="round" stroke-linejoin="round"></path><path d="M71.0142 291.943H77.7044V291.54C77.7044 288.074 80.5256 285.253 83.9916 285.253C85.6037 285.253 87.0546 285.898 88.1831 286.865V286.784C89.8758 281.626 94.7121 277.837 100.435 277.837C107.528 277.837 113.332 283.641 113.332 290.734C113.332 291.379 113.251 292.104 113.171 292.749L113.332 292.91H116.798" stroke="#AAB2C5" stroke-width="2" stroke-miterlimit="10" stroke-linecap="round" stroke-linejoin="round"></path><path d="M374.493 247.852H368.125V247.449C368.125 244.144 365.465 241.484 362.161 241.484C360.629 241.484 359.259 242.048 358.13 243.016V242.935C356.518 238.018 351.924 234.391 346.362 234.391C339.591 234.391 334.029 239.872 334.029 246.723C334.029 247.368 334.11 248.013 334.191 248.658L334.029 248.819H330.725" stroke="#AAB2C5" stroke-width="2" stroke-miterlimit="10" stroke-linecap="round" stroke-linejoin="round"></path><path d="M51.3467 66.8935C51.3467 66.9742 51.3467 67.055 51.3467 67.1358V66.7319C51.3467 66.7319 51.3467 66.8127 51.3467 66.8935Z" fill="#F1F3FA" stroke="#AAB2C5" stroke-width="2" stroke-miterlimit="10"></path><path d="M346.424 107.264C355.71 97.978 355.71 82.9224 346.424 73.6364C337.138 64.3504 322.082 64.3504 312.796 73.6364C303.51 82.9224 303.51 97.978 312.796 107.264C322.082 116.55 337.138 116.55 346.424 107.264Z" fill="#F1F3FA" stroke="#AAB2C5" stroke-width="2" stroke-miterlimit="10"></path><path d="M334.594 113.725C325.082 105.1 315.087 95.105 306.382 85.513C310.251 67.2156 333.062 60.2029 346.523 73.5834C359.823 86.9639 352.891 109.856 334.594 113.725Z" fill="#F1F3FA" stroke="#AAB2C5" stroke-width="2" stroke-miterlimit="10"></path><path d="M315.248 71.4877C298.805 56.8981 285.747 48.1928 283.167 50.7721C280.507 53.4321 290.261 67.8604 306.301 85.513C332.74 114.773 365.062 141.131 369.334 136.859C373.768 132.425 345.072 97.8456 315.248 71.4877ZM340.881 111.387C312.105 89.5433 287.762 53.1097 313.878 72.5356C332.256 86.1579 355.954 113.644 352.568 117.03C351.359 118.239 346.926 115.982 340.881 111.387Z" fill="#F1F3FA" stroke="#AAB2C5" stroke-width="2" stroke-miterlimit="10"></path><path opacity="0.3" d="M294.21 60.203C291.228 63.1854 303.48 80.2737 321.616 98.4099C339.752 116.546 356.841 128.798 359.823 125.816C366.836 118.803 301.304 53.1097 294.21 60.203ZM302.996 67.4574C305.173 65.2811 318.069 74.5507 331.772 88.2536C345.475 101.957 354.745 114.773 352.569 117.03C347.329 122.269 297.757 72.6968 302.996 67.4574Z" fill="#AAB2C5"></path><path d="M340.881 111.387C330.322 103.407 316.619 89.7045 308.639 79.1452C315.974 65.4423 334.916 62.0568 346.443 73.5834C357.889 85.0293 354.664 103.972 340.881 111.387Z" fill="#F1F3FA" stroke="#AAB2C5" stroke-width="2" stroke-miterlimit="10"></path><path opacity="0.3" d="M346.362 107.357C344.669 108.969 342.815 110.34 340.881 111.387C330.322 103.407 316.619 89.7046 308.639 79.1453C309.606 77.2913 310.976 75.6792 312.508 74.0671C310.815 80.6768 341.687 110.904 346.362 107.357Z" fill="#AAB2C5"></path><path opacity="0.3" d="M345.878 97.6844C347.703 97.6844 349.183 95.2665 349.183 92.2839C349.183 89.3012 347.703 86.8833 345.878 86.8833C344.053 86.8833 342.573 89.3012 342.573 92.2839C342.573 95.2665 344.053 97.6844 345.878 97.6844Z" fill="#AAB2C5"></path><path opacity="0.3" d="M337.657 81.3215C339.126 81.3215 340.317 79.8779 340.317 78.0973C340.317 76.3166 339.126 74.873 337.657 74.873C336.188 74.873 334.997 76.3166 334.997 78.0973C334.997 79.8779 336.188 81.3215 337.657 81.3215Z" fill="#AAB2C5"></path><path opacity="0.3" d="M321.271 78.8014C322.633 78.5809 323.593 77.5115 323.415 76.4129C323.237 75.3144 321.989 74.6026 320.627 74.8231C319.264 75.0436 318.304 76.113 318.482 77.2115C318.66 78.3101 319.909 79.0219 321.271 78.8014Z" fill="#AAB2C5"></path><path opacity="0.3" d="M330.117 87.7342C332.314 87.3785 333.853 85.594 333.554 83.7484C333.255 81.9028 331.232 80.695 329.035 81.0507C326.838 81.4064 325.299 83.1909 325.598 85.0365C325.896 86.882 327.92 88.0899 330.117 87.7342Z" fill="#AAB2C5"></path><path d="M115.106 131.216C115.106 156.929 89.1509 174.662 65.2112 165.232C58.9239 162.733 53.5234 158.622 49.4931 153.302C31.3569 129.443 48.2034 94.6213 78.5916 94.6213C82.7831 94.6213 86.7328 95.3468 90.4406 96.5559C104.869 101.634 115.106 115.337 115.106 131.216Z" fill="#F1F3FA" stroke="#AAB2C5" stroke-width="2" stroke-miterlimit="10"></path><path opacity="0.5" d="M73.9968 134.682C73.9968 139.841 69.8053 144.032 64.6466 144.032C63.1957 144.032 61.8254 143.71 60.5357 143.065C57.3921 141.534 55.2964 138.39 55.2964 134.682C55.2964 129.524 59.4879 125.332 64.6466 125.332C67.3066 125.332 69.8053 126.461 71.4981 128.314C73.0296 129.927 73.9968 132.183 73.9968 134.682Z" fill="#AAB2C5"></path><path d="M73.9965 134.682C73.9965 139.841 69.805 144.032 64.6463 144.032C63.1954 144.032 61.8251 143.71 60.5354 143.065C59.0039 141.372 58.0366 139.196 58.0366 136.697C58.0366 131.539 62.2281 127.347 67.3868 127.347C68.8377 127.347 70.208 127.669 71.4977 128.314C73.0292 129.926 73.9965 132.183 73.9965 134.682Z" fill="#DCDFEA"></path><path opacity="0.5" d="M88.1028 118.964C88.1028 122.511 85.2816 125.332 81.735 125.332C81.0902 125.332 80.5259 125.251 79.9617 125.09C77.3017 124.365 75.3672 121.866 75.3672 118.964C75.3672 115.418 78.1884 112.596 81.735 112.596C83.5083 112.596 85.0398 113.322 86.1683 114.37C87.3774 115.579 88.1028 117.191 88.1028 118.964Z" fill="#AAB2C5"></path><path d="M88.1025 118.964C88.1025 122.511 85.2813 125.332 81.7347 125.332C81.0899 125.332 80.5256 125.251 79.9614 125.09C78.7523 123.962 78.0269 122.35 78.0269 120.576C78.0269 117.03 80.848 114.208 84.3947 114.208C85.0395 114.208 85.6038 114.289 86.168 114.45C87.3771 115.579 88.1025 117.191 88.1025 118.964Z" fill="#DCDFEA"></path><path opacity="0.5" d="M93.3421 145.08C93.3421 148.627 90.5209 151.448 86.9743 151.448C86.6518 151.448 86.2488 151.448 85.9264 151.367C82.8634 150.884 80.6064 148.224 80.6064 145.08C80.6064 141.534 83.4276 138.712 86.9743 138.712C88.2639 138.712 89.473 139.115 90.5209 139.76C92.2136 140.889 93.3421 142.823 93.3421 145.08Z" fill="#AAB2C5"></path><path d="M93.3419 145.08C93.3419 148.627 90.5207 151.448 86.974 151.448C86.6516 151.448 86.2486 151.448 85.9262 151.367C84.2335 150.239 83.105 148.304 83.105 146.048C83.105 142.501 85.9262 139.68 89.4728 139.68C89.7952 139.68 90.1176 139.68 90.5207 139.76C92.2134 140.889 93.3419 142.823 93.3419 145.08Z" fill="#DCDFEA"></path><path opacity="0.5" d="M100.435 130.41C100.435 132.748 98.5813 134.602 96.2438 134.602C96.0019 134.602 95.7601 134.602 95.5183 134.521C93.5032 134.199 91.9717 132.425 91.9717 130.33C91.9717 127.992 93.9062 126.138 96.1632 126.138C97.1304 126.138 98.0171 126.46 98.7425 127.025C99.7904 127.911 100.435 129.12 100.435 130.41Z" fill="#AAB2C5"></path><path d="M100.435 130.41C100.435 132.748 98.5814 134.602 96.2438 134.602C96.002 134.602 95.7602 134.602 95.5184 134.521C94.5511 133.715 93.9062 132.506 93.9062 131.216C93.9062 128.879 95.7602 127.025 98.0977 127.025C98.3395 127.025 98.5814 127.025 98.8232 127.105C99.7904 127.911 100.435 129.12 100.435 130.41Z" fill="#DCDFEA"></path><path opacity="0.3" d="M115.106 131.216C115.106 156.929 89.1507 174.662 65.2109 165.232C65.7752 164.748 66.5006 164.426 67.1455 164.103C79.6393 157.977 91.1658 162.975 96.0828 154.269C98.3397 150.239 97.05 145 99.1458 140.889C100.113 138.874 101.806 137.262 102.773 135.327C106.239 128.234 99.1458 112.919 100.516 108.647C101.08 106.954 102.773 105.906 104.546 105.584C111.075 112.193 115.106 121.221 115.106 131.216Z" fill="#AAB2C5"></path><path d="M91.3268 102.198C89.3117 107.276 80.9287 105.745 77.2209 105.825C69.7246 105.906 68.6767 109.695 67.1452 111.71C64.7271 114.853 60.2938 116.143 56.5859 114.853C59.8102 130.329 53.1199 128.959 51.9108 133.876C50.5405 139.68 60.858 143.226 58.9235 148.949C57.795 152.254 52.9587 153.06 49.4121 153.302C31.2759 129.443 48.1224 94.6213 78.5106 94.6213C82.7021 94.6213 86.6517 95.3468 90.3596 96.5559C91.488 98.3292 92.0523 100.425 91.3268 102.198Z" fill="white"></path><path opacity="0.3" d="M62.1477 118.319C63.5723 118.319 64.7271 117.165 64.7271 115.74C64.7271 114.315 63.5723 113.161 62.1477 113.161C60.7232 113.161 59.5684 114.315 59.5684 115.74C59.5684 117.165 60.7232 118.319 62.1477 118.319Z" fill="#AAB2C5"></path><path d="M115.106 131.216C115.106 156.929 89.1509 174.662 65.2112 165.232C58.9239 162.733 53.5234 158.622 49.4931 153.302C31.3569 129.443 48.2034 94.6213 78.5916 94.6213C82.7831 94.6213 86.7328 95.3468 90.4406 96.5559C104.869 101.634 115.106 115.337 115.106 131.216Z" stroke="#AAB2C5" stroke-width="2" stroke-miterlimit="10"></path></svg>